<svg width="512" height="512" viewBox="0 0 512 512" fill="none" xmlns="http://www.w3.org/2000/svg">
<rect width="512" height="512" fill="black"/>
<path d="M260.469 386.784C269.332 386.784 278 385.88 286.373 384.171C345.479 372.127 389.95 319.67 389.95 256.76C389.95 251.75 389.676 246.819 389.129 241.966C387.426 226.799 383.122 212.437 376.666 199.313L346.888 229.215C349.627 237.899 351.114 247.153 351.114 256.741C351.114 266.328 349.627 275.68 346.849 284.404C335.188 321.143 300.93 347.745 260.489 347.745H193.01L209.033 331.655C226.798 313.815 244.602 296.035 262.348 278.176C287.41 252.949 312.473 227.722 337.536 202.496C350.077 189.882 362.599 177.269 375.14 164.656C381.4 158.349 387.681 152.042 393.942 145.736C397.209 142.454 400.457 139.173 403.724 135.892C405.035 134.576 410.317 127.562 412 127.562C374.729 127.091 337.477 126.619 300.206 126.128C271.915 125.774 242.939 125.499 216.214 134.831C191.405 143.476 169.571 160.353 154.506 181.945C128.66 219.019 124.082 270.002 142.904 311.104C151.786 302.4 160.688 293.697 169.571 284.993C170.549 284.05 171.547 283.048 172.036 281.771C172.701 280.042 172.29 278.097 171.938 276.27C167.81 255.483 170.647 233.282 180.312 214.421C189.977 195.58 206.509 180.275 226.192 172.613C255.363 161.257 287.919 166.974 319.184 165.913C307.914 177.21 296.645 188.507 285.395 199.804C260.352 224.913 235.329 250.002 210.285 275.111C197.764 287.665 185.242 300.219 172.74 312.774C161.177 324.366 148.675 335.211 138.11 347.706L99 387L260.469 386.784Z" fill="#F9EFAF"/>
</svg>
